<?xml version="1.0" encoding="UTF-8" standalone="no"?>
<svg
   xmlns:dc="http://purl.org/dc/elements/1.1/"
   xmlns:cc="http://creativecommons.org/ns#"
   xmlns:rdf="http://www.w3.org/1999/02/22-rdf-syntax-ns#"
   xmlns:svg="http://www.w3.org/2000/svg"
   xmlns="http://www.w3.org/2000/svg"
   viewBox="0 0 126.66667 128"
   height="128"
   width="126.66667"
   xml:space="preserve"
   id="svg2"
   version="1.1"><metadata
     id="metadata8"><rdf:RDF><cc:Work
         rdf:about=""><dc:format>image/svg+xml</dc:format><dc:type
           rdf:resource="http://purl.org/dc/dcmitype/StillImage" /></cc:Work></rdf:RDF></metadata><defs
     id="defs6" /><g
     transform="matrix(1.3333333,0,0,-1.3333333,0,128)"
     id="g10"><g
       transform="scale(0.1)"
       id="g12"><path
         id="path14"
         style="fill:#ffffff;fill-opacity:1;fill-rule:nonzero;stroke:none"
         d="M 0,482.5 C 0,743.52 211.48,955 472.5,955 733.52,955 945,743.52 945,482.5 945,221.48 733.52,10 472.5,10 211.48,10 0,221.48 0,482.5 Z" /><path
         id="path16"
         style="fill:#0e3386;fill-opacity:1;fill-rule:nonzero;stroke:none"
         d="m 30.7383,483.98 c 0,243.75 198.0117,441.758 441.7617,441.758 243.75,0 441.762,-198.008 441.762,-441.758 C 914.262,240.23 716.25,42.2695 472.5,42.2695 228.012,42.2695 30.7383,240.23 30.7383,483.98 Z M 472.5,157.73 c 180,0 326.25,146.25 326.25,326.25 0,180 -146.25,326.25 -326.25,326.25 -180,0 -326.25,-146.25 -326.25,-326.25 0,-180 145.512,-326.25 326.25,-326.25 z" /><path
         id="path18"
         style="fill:#cc3433;fill-opacity:1;fill-rule:nonzero;stroke:none"
         d="M 615.738,391.762 C 585,344.488 532.5,313.012 471.762,313.012 377.27,313.012 300.738,389.488 300.738,483.98 301.48,578.52 378.012,655 472.5,655 c 62.27,0 116.25,-33.012 146.25,-82.5 l 83.98,81.762 c -52.5,70.508 -135.742,116.25 -230.23,116.25 -158.238,0 -286.48,-128.242 -286.48,-286.532 0,-158.242 128.242,-286.48 286.48,-286.48 93.75,0 176.25,45 228.75,113.98 z" /><path
         id="path20"
         style="fill:#cc3433;fill-opacity:1;fill-rule:nonzero;stroke:none"
         d="m 421.48,456.25 v 103.52 h 51.758 v -105 c 0,-37.5 -8.976,-46.532 -38.976,-46.532 -22.5,0 -33.75,0 -53.242,0 -24.77,0 -33.008,15.742 -33.008,49.492 V 559.77 H 399.77 V 456.25 c 0,-14.262 21.71,-14.262 21.71,0" /><path
         id="path22"
         style="fill:#cc3433;fill-opacity:1;fill-rule:nonzero;stroke:none"
         d="M 491.988,408.238 V 559.77 h 81.024 c 30.738,0 43.468,-7.5 43.468,-42.782 0,-18.75 -3.75,-28.468 -14.21,-33.75 C 616.48,475 616.48,460 616.48,447.27 c 0,-33.75 -15,-39.032 -43.468,-39.032 -37.5,0 -81.024,0 -81.024,0 z" /><path
         id="path24"
         style="fill:#ffffff;fill-opacity:1;fill-rule:nonzero;stroke:none"
         d="m 567.73,518.52 c 0,5.968 -5.968,5.968 -21.71,5.968 V 503.52 c 8.98,0 21.71,-0.79 21.71,6.71 z" /><path
         id="path26"
         style="fill:#ffffff;fill-opacity:1;fill-rule:nonzero;stroke:none"
         d="m 566.988,456.988 c -3.008,7.5 -4.488,6.024 -21.758,6.024 v -21.024 c 11.25,0 21.758,-0.738 21.758,6.762 0,2.27 0.742,6.762 0,8.238 z" /><path
         id="path28"
         style="fill:#cc3433;fill-opacity:1;fill-rule:nonzero;stroke:none"
         d="m 719.262,408.238 c 27.726,0 41.988,7.5 41.988,32.274 0,3.008 0,30.738 0,33.75 0,18.008 -12.73,29.258 -30.738,29.258 -18.012,0 -30.742,0 -36.762,0 -9.77,0 -7.5,14.21 -7.5,18.75 0,6.71 21.02,8.98 21.02,-2.27 0,-3.012 0,-5.23 0,-6.762 h 54.718 c 0,35.282 -6.758,46.532 -41.988,46.532 -8.238,0 -38.238,0 -48.012,0 -22.5,0 -35.226,-9.032 -35.968,-35.282 -0.79,-26.25 0,-15 0,-24.718 0,-9.77 -1.532,-31.532 28.468,-31.532 15.742,0 34.492,0 37.5,0 10.512,0 8.242,-12.726 8.242,-12.726 v -8.242 c 0,-9.032 -17.96,-9.032 -21.71,-2.27 -3.008,4.488 -1.532,12.73 -1.532,12.73 H 636.02 c 0,-10.46 -6.02,-50.23 25.46,-50.23 27.04,0.738 57.782,0.738 57.782,0.738 z" /><path
         id="path30"
         style="fill:#0e3386;fill-opacity:1;fill-rule:nonzero;stroke:none"
         d="m 706.48,381.25 h -8.98 v -23.98 h -6.02 v 23.98 h -8.98 v 5.23 h 23.238 v -5.23 z m 39.77,-23.98 h -6.02 v 23.242 l -8.242,-23.242 h -5.968 l -8.29,23.242 V 357.27 h -5.968 v 29.21 h 10.508 l 6.71,-18.75 6.758,18.75 h 10.512 z" /></g></g></svg>