<?xml version="1.0" encoding="utf-8"?>
<!-- Generator: Adobe Illustrator 16.0.0, SVG Export Plug-In . SVG Version: 6.00 Build 0)  -->
<!DOCTYPE svg PUBLIC "-//W3C//DTD SVG 1.1//EN" "http://www.w3.org/Graphics/SVG/1.1/DTD/svg11.dtd">
<svg version="1.1" xmlns="http://www.w3.org/2000/svg" xmlns:xlink="http://www.w3.org/1999/xlink" x="0px" y="0px"
	 width="307.333px" height="338px" viewBox="0 0 307.333 338" enable-background="new 0 0 307.333 338" xml:space="preserve">
<g id="Layer_1">
</g>
<g id="Layer_4">
</g>
<g id="Layer_2">
</g>
<g id="Layer_3">
	<g>
		<g>
			<rect x="8.5" y="8.5" fill="#FDB80A" width="290.333" height="321"/>
			<path fill="#231F20" d="M290.333,17v304H17V17H290.333 M307.333,0h-17H17H0v17v304v17h17h273.333h17v-17V17V0L307.333,0z"/>
			<path fill="#FDB80A" d="M290.333,17v304H17V17H290.333 M304.333,3h-14H17H3v14v304v14h14h273.333h14v-14V17V3L304.333,3z"/>
			<path d="M290.333,17v304H17V17H290.333 M300.333,7h-10H17H7v10v304v10h10h273.333h10v-10V17V7L300.333,7z"/>
		</g>
		<path d="M195.732,46.395l-88.879,14.163l-26.714,4.257l-17.725,2.825l3.934,24.689l17.725-2.825l12.511,78.51l3.934,24.688
			l11.488,72.09l-20.245,3.227l3.934,24.689l20.245-3.227l26.715-4.258l17.281-2.754l-3.934-24.688l-17.282,2.754l-11.487-72.092
			l88.879-14.162l24.688-3.934l-3.934-24.688l-12.51-78.51l-3.936-24.688L195.732,46.395z M212.175,149.594l-88.878,14.162
			l-12.511-78.51l88.879-14.163L212.175,149.594z"/>
		<rect x="13.667" y="219.666" width="279.665" height="25"/>
		<rect x="13.667" y="115.666" width="279.665" height="25"/>
	</g>
</g>
</svg>
